<svg xmlns="http://www.w3.org/2000/svg" xmlns:xlink="http://www.w3.org/1999/xlink" viewBox="0 0 336.18 132.82"><defs><style>.cls-1{fill:url(#linear-gradient);}.cls-2{fill:#ed1b5e;}</style><linearGradient id="linear-gradient" y1="66.41" x2="129.92" y2="66.41" gradientUnits="userSpaceOnUse"><stop offset="0" stop-color="#ed1b5e"/><stop offset="1" stop-color="#febf10"/></linearGradient></defs><g id="Layer_2" data-name="Layer 2"><g id="Layer_1-2" data-name="Layer 1"><path class="cls-1" d="M56.63,72.7a5.32,5.32,0,1,1-2.39-7.17A5.33,5.33,0,0,1,56.63,72.7Zm71.06,15.65c-16.17,11.5-29.8,20.27-42.57,25.24a20.19,20.19,0,0,1-40.33,0C32.06,108.66,18.43,99.88,2.23,88.38A5.23,5.23,0,0,1,.47,81.92C1.7,79.09,3,76.25,4.24,73.37,20.11,37.3,36.5,0,65,0s44.88,37.3,60.75,73.41c1.27,2.84,2.5,5.68,3.77,8.48A5.31,5.31,0,0,1,127.69,88.35ZM118,82.22c-.68-1.53-1.31-3-2-4.55-1.87-4.3-3.77-8.55-5.72-12.81a1,1,0,0,0-.15-.34v0c-.22-.53-.44-1-.67-1.54a1.92,1.92,0,0,1-.15-.37s0,0,0-.07a5.51,5.51,0,0,0-1.95-1.65,5.32,5.32,0,0,0-7.13,2.43,4.33,4.33,0,0,0-.48,1.83v1.46l0,5.11A5.3,5.3,0,0,1,94.53,77a5.31,5.31,0,0,1-5.3-5.26l-.3-43.24v0a1.7,1.7,0,0,0,0-.45v-.52A5.45,5.45,0,0,0,86,23.45a5.32,5.32,0,0,0-7.14,2.43,5.08,5.08,0,0,0-.56,2.31v.26L78.47,89a5.26,5.26,0,0,1-5.26,5.3,5.52,5.52,0,0,1-2.91-.82A5.23,5.23,0,0,1,67.91,89l-.19-71.84V15a5.43,5.43,0,0,0-5.23-4.18H62.3a5.41,5.41,0,0,0-1.08.15.26.26,0,0,1-.15,0,5.41,5.41,0,0,0-3.36,2.8,5.19,5.19,0,0,0-.41,1.16V15l0,2.28L57,57.5a5.35,5.35,0,0,1-5.34,5.27,5.57,5.57,0,0,1-3-1,5.25,5.25,0,0,1-2.27-4.37L46.55,36l0-3a5.43,5.43,0,0,0-2.73-3.21,5.32,5.32,0,0,0-7.13,2.39,4.67,4.67,0,0,0-.41,1.19v.08a5.47,5.47,0,0,1,.07.75v1.94l.34,41.78a5.3,5.3,0,0,1-5.27,5.3A5.29,5.29,0,0,1,26.12,78V75.72l0-1.75a5.31,5.31,0,0,0-9.9-1.49c-.07,0-.07.11-.11.15s-.08.18-.11.29c-.68,1.57-1.39,3.14-2.06,4.71s-1.34,3.1-2,4.63C27.35,93.09,40.24,101,52,104.92a5.33,5.33,0,0,1,3.55,5.94,9.22,9.22,0,0,0-.15,1.76,9.6,9.6,0,0,0,19.19,0,8.1,8.1,0,0,0-.15-1.72,5.38,5.38,0,0,1,3.55-6C90.27,100.85,104.39,91.78,118,82.22Z"/><path class="cls-2" d="M148.61,3.72a2.94,2.94,0,0,1,.9-2.15,2.92,2.92,0,0,1,2.15-.9h9.13a11.72,11.72,0,0,1,8.62,3.57A11.69,11.69,0,0,1,173,12.85a11.71,11.71,0,0,1-3.56,8.62,6.67,6.67,0,0,1-.55.52c.19.16.37.34.55.52A11.71,11.71,0,0,1,173,31.13a12.15,12.15,0,0,1-12.18,12.18h-9.13a3.07,3.07,0,0,1-3-3.05Zm6.09,3V19h6.09a6.09,6.09,0,0,0,6.09-6.1,6.09,6.09,0,0,0-6.09-6.09Zm0,18.28V37.22h6.09a6.1,6.1,0,0,0,4.31-10.4A5.86,5.86,0,0,0,160.79,25Z"/><path class="cls-2" d="M200.38.67a2.92,2.92,0,0,1,2.15.9,2.94,2.94,0,0,1,.9,2.15,2.94,2.94,0,0,1-.9,2.15,3,3,0,0,1-2.15.89H185.16V19h12.18a3,3,0,0,1,2.15,5.19,2.94,2.94,0,0,1-2.15.9H185.16V37.22h15.22a3,3,0,0,1,0,6.09H182.11a3.06,3.06,0,0,1-3-3.05V3.72A3,3,0,0,1,180,1.57a2.94,2.94,0,0,1,2.15-.9Z"/><path class="cls-2" d="M230.84,37.22a3,3,0,0,1,0,6.09H212.57a3.07,3.07,0,0,1-3-3.05V3.72a2.94,2.94,0,0,1,.9-2.15,3,3,0,0,1,4.29,0,2.94,2.94,0,0,1,.9,2.15v33.5Z"/><path class="cls-2" d="M261.29,37.22a3,3,0,0,1,0,6.09H243a3.06,3.06,0,0,1-3-3.05V3.72a2.93,2.93,0,0,1,.89-2.15,3,3,0,0,1,4.3,0,2.94,2.94,0,0,1,.9,2.15v33.5Z"/><path class="cls-2" d="M159.64,55.6a1.59,1.59,0,0,1,0,3.17H151.7v6.35h6.35a1.56,1.56,0,0,1,1.12.47,1.53,1.53,0,0,1,.47,1.12,1.54,1.54,0,0,1-.47,1.12,1.56,1.56,0,0,1-1.12.47H151.7v7.93a1.6,1.6,0,0,1-1.59,1.59,1.54,1.54,0,0,1-1.12-.47,1.53,1.53,0,0,1-.47-1.12v-19a1.53,1.53,0,0,1,.47-1.12,1.5,1.5,0,0,1,1.12-.47Z"/><path class="cls-2" d="M175.51,74.64a1.59,1.59,0,0,1,1.58,1.59,1.52,1.52,0,0,1-.46,1.12,1.56,1.56,0,0,1-1.12.47H166a1.52,1.52,0,0,1-1.11-.47,1.49,1.49,0,0,1-.47-1.12v-19a1.58,1.58,0,0,1,2.7-1.12,1.53,1.53,0,0,1,.47,1.12V74.64Z"/><path class="cls-2" d="M189.79,57.19a1.53,1.53,0,0,1,.47-1.12,1.57,1.57,0,0,1,2.24,0,1.53,1.53,0,0,1,.47,1.12V71.47a6.35,6.35,0,0,1-12.7,0V57.19a1.53,1.53,0,0,1,.47-1.12,1.49,1.49,0,0,1,1.12-.47,1.59,1.59,0,0,1,1.58,1.59V71.47a3.16,3.16,0,0,0,3.18,3.17,3,3,0,0,0,2.24-.92,3.06,3.06,0,0,0,.93-2.25Z"/><path class="cls-2" d="M196.14,62a6.35,6.35,0,0,1,12.7,0v9.52a6.35,6.35,0,0,1-12.7,0Zm9.52,0a3.17,3.17,0,0,0-5.42-2.25,3.09,3.09,0,0,0-.92,2.25v9.52a3.09,3.09,0,0,0,.92,2.25,3.17,3.17,0,0,0,5.42-2.25Z"/><path class="cls-2" d="M215.19,76.23a1.53,1.53,0,0,1-.47,1.12,1.57,1.57,0,0,1-2.24,0,1.53,1.53,0,0,1-.47-1.12v-19a1.53,1.53,0,0,1,.47-1.12,1.5,1.5,0,0,1,1.12-.47h4.76a6.35,6.35,0,0,1,4.49,10.84,6.33,6.33,0,0,1-2.14,1.43l3.7,7.38,0,0a1.48,1.48,0,0,1,.32,1,1.6,1.6,0,0,1-1.59,1.59,1.49,1.49,0,0,1-1.11-.48,1.35,1.35,0,0,1-.31-.41l-4.32-8.63h-2.19Zm0-17.46v6.35h3.17a3.18,3.18,0,1,0,0-6.35Z"/><path class="cls-2" d="M239,55.6a1.59,1.59,0,0,1,0,3.17h-7.94v6.35h6.35a1.54,1.54,0,0,1,1.12.47,1.53,1.53,0,0,1,.47,1.12,1.6,1.6,0,0,1-1.59,1.59h-6.35v6.34H239a1.59,1.59,0,0,1,1.58,1.59,1.52,1.52,0,0,1-.46,1.12,1.56,1.56,0,0,1-1.12.47h-9.53a1.56,1.56,0,0,1-1.12-.47,1.52,1.52,0,0,1-.46-1.12v-19a1.59,1.59,0,0,1,1.58-1.59Z"/><path class="cls-2" d="M256.64,71.4a6.11,6.11,0,0,1-1.86,4.49,7.11,7.11,0,0,1-5.28,1.86,6.72,6.72,0,0,1-5-1.86h0s0,0,0,0a1.46,1.46,0,0,1-.48-1.11,1.56,1.56,0,0,1,.47-1.12,1.53,1.53,0,0,1,1.12-.47,1.54,1.54,0,0,1,1.12.47s0,0,0,0a3.7,3.7,0,0,0,2.73.93,4.17,4.17,0,0,0,3-.93,3,3,0,0,0,.93-2.24,3.18,3.18,0,0,0-3.18-3.18,6.35,6.35,0,0,1-4.49-10.84,7.19,7.19,0,0,1,5.29-1.85,6.72,6.72,0,0,1,5,1.85v0l0,0a1.57,1.57,0,0,1,.46,1.12,1.53,1.53,0,0,1-.47,1.12,1.54,1.54,0,0,1-1.12.47,1.49,1.49,0,0,1-1.11-.48h0a3.69,3.69,0,0,0-2.73-.94,4.17,4.17,0,0,0-3,.93,3.18,3.18,0,0,0,2.24,5.42,6.35,6.35,0,0,1,6.35,6.35Z"/><path class="cls-2" d="M263,71.4a3,3,0,0,0,.93,2.24,4.17,4.17,0,0,0,3,.93,3.73,3.73,0,0,0,2.73-.93l0,0a1.56,1.56,0,0,1,2.23,0,1.56,1.56,0,0,1,.47,1.12,1.48,1.48,0,0,1-.46,1.11l0,0h0a6.72,6.72,0,0,1-5,1.86,7.15,7.15,0,0,1-5.29-1.86,6.14,6.14,0,0,1-1.85-4.49V61.88a6.16,6.16,0,0,1,1.85-4.5A7.19,7.19,0,0,1,267,55.53a6.76,6.76,0,0,1,5,1.85l0,0,0,0a1.6,1.6,0,0,1-1.13,2.71,1.49,1.49,0,0,1-1.11-.48h0A3.69,3.69,0,0,0,267,58.7a4.17,4.17,0,0,0-3,.93,3.06,3.06,0,0,0-.93,2.25Z"/><path class="cls-2" d="M286.8,55.53a1.5,1.5,0,0,1,1.12.47,1.56,1.56,0,0,1,0,2.23,1.5,1.5,0,0,1-1.12.47h-7.94v6.35h6.35a1.6,1.6,0,0,1,1.59,1.59,1.56,1.56,0,0,1-.47,1.12,1.52,1.52,0,0,1-1.12.46h-6.35v6.35h7.94a1.59,1.59,0,0,1,0,3.18h-9.52a1.53,1.53,0,0,1-1.12-.47,1.5,1.5,0,0,1-.47-1.12v-19a1.61,1.61,0,0,1,1.59-1.58Z"/><path class="cls-2" d="M294.74,76.16a1.54,1.54,0,0,1-.47,1.12,1.56,1.56,0,0,1-1.12.47,1.53,1.53,0,0,1-1.12-.47,1.54,1.54,0,0,1-.47-1.12v-19A1.52,1.52,0,0,1,292,56a1.49,1.49,0,0,1,1.12-.47,1.53,1.53,0,0,1,1.12.46,1.8,1.8,0,0,1,.31.43l6.5,13V57.11a1.52,1.52,0,0,1,.47-1.11,1.5,1.5,0,0,1,1.12-.47,1.49,1.49,0,0,1,1.12.47,1.52,1.52,0,0,1,.47,1.11v19a1.54,1.54,0,0,1-.47,1.12,1.53,1.53,0,0,1-1.12.47,1.49,1.49,0,0,1-1.11-.48,1.52,1.52,0,0,1-.32-.41l-6.5-13Z"/><path class="cls-2" d="M310.61,71.4a3,3,0,0,0,.93,2.24,4.16,4.16,0,0,0,3,.93,3.73,3.73,0,0,0,2.73-.93l0,0a1.49,1.49,0,0,1,1.11-.47,1.54,1.54,0,0,1,1.12.47,1.56,1.56,0,0,1,.47,1.12,1.52,1.52,0,0,1-.46,1.11l-.05,0h0a6.68,6.68,0,0,1-5,1.86,7.15,7.15,0,0,1-5.29-1.86,6.11,6.11,0,0,1-1.86-4.49V61.88a6.13,6.13,0,0,1,1.86-4.5,7.19,7.19,0,0,1,5.29-1.85,6.72,6.72,0,0,1,5,1.85v0l.05,0a1.57,1.57,0,0,1,.46,1.12,1.53,1.53,0,0,1-.47,1.12,1.54,1.54,0,0,1-1.12.47,1.46,1.46,0,0,1-1.11-.48h0a3.69,3.69,0,0,0-2.73-.94,4.16,4.16,0,0,0-3,.93,3.06,3.06,0,0,0-.93,2.25Z"/><path class="cls-2" d="M334.42,55.53a1.59,1.59,0,0,1,0,3.17h-7.94v6.35h6.35a1.54,1.54,0,0,1,1.12.47,1.53,1.53,0,0,1,.47,1.12,1.56,1.56,0,0,1-.47,1.12,1.53,1.53,0,0,1-1.12.46h-6.35v6.35h7.94a1.52,1.52,0,0,1,1.11.47,1.57,1.57,0,0,1,0,2.24,1.52,1.52,0,0,1-1.11.47h-9.53a1.56,1.56,0,0,1-1.12-.47,1.53,1.53,0,0,1-.46-1.12v-19a1.59,1.59,0,0,1,1.58-1.58Z"/><path class="cls-2" d="M271.23,125.92a3.09,3.09,0,0,1,0,6.18H252.67a3.11,3.11,0,0,1-3.09-3.09V91.9a3.12,3.12,0,0,1,3.09-3.1,3,3,0,0,1,2.18.92,3,3,0,0,1,.91,2.18v34Z"/><path class="cls-2" d="M286.88,125.92l-.9,3.8a3.06,3.06,0,0,1-1.41,1.92,3,3,0,0,1-4.22-1,3,3,0,0,1-.4-2.34l8.6-37a3,3,0,0,1,1.4-1.92,3.37,3.37,0,0,1,2.34-.49h1.18a3.33,3.33,0,0,1,2.33.49,3.06,3.06,0,0,1,1.41,1.92l8.6,37a3,3,0,0,1-.41,2.34,3,3,0,0,1-4.22,1,3.06,3.06,0,0,1-1.41-1.92l-.89-3.8Zm1.42-6.19h9.16l-4.58-19.67Z"/><path class="cls-2" d="M311.44,91.9a3.12,3.12,0,0,1,3.09-3.1h9.28a12.38,12.38,0,0,1,8.75,21.13c-.19.18-.37.36-.56.52.19.17.37.34.56.53a12.37,12.37,0,0,1-8.75,21.12h-9.28a3.11,3.11,0,0,1-3.09-3.09ZM317.62,95v12.37h6.19a6.19,6.19,0,0,0,0-12.37Zm0,18.56v12.37h6.19a6.19,6.19,0,0,0,0-12.37Z"/></g></g></svg>