<svg xmlns="http://www.w3.org/2000/svg" viewBox="0 0 448.31 485.42"><defs><style>.cls-1{fill:#fff;}</style></defs><g id="Layer_2" data-name="Layer 2"><g id="Layer_1-2" data-name="Layer 1"><path class="cls-1" d="M280.94,423.47s-.05.13-.05.17C281.07,423.69,281.11,423.64,280.94,423.47Z"/><path class="cls-1" d="M177,434.85c0,.13,0,.21.08.34.22.47.39.82.52,1.08.09,0,.13-.22.13-.52C177.47,435.45,177.22,435.15,177,434.85Z"/><path class="cls-1" d="M183,427.89V428s0,.05,0,.05a.43.43,0,0,0,0-.22S183,427.89,183,427.89Z"/><path class="cls-1" d="M177.69,435.75c0,.3,0,.47-.13.52-.13-.26-.3-.61-.52-1.08,0-.13,0-.21-.08-.34C177.22,435.15,177.47,435.45,177.69,435.75Z"/><path class="cls-1" d="M183.05,427.85a.43.43,0,0,1,0,.22s0-.05,0-.05v0Z"/><path class="cls-1" d="M281,423.48c.17.17.13.21-.05.17C280.9,423.61,281,423.52,281,423.48Z"/><path class="cls-1" d="M316.32,442.67a45,45,0,0,1-13.61-.05A53.86,53.86,0,0,0,316.32,442.67Z"/><path class="cls-1" d="M177.69,435.75c0,.3,0,.47-.13.52-.13-.26-.3-.61-.52-1.08,0-.13,0-.21-.08-.34C177.22,435.15,177.47,435.45,177.69,435.75Z"/><path class="cls-1" d="M183.05,427.85,183,428v-.09S183,427.85,183.05,427.85Z"/><path class="cls-1" d="M36.2,346.88a45.81,45.81,0,0,1-4.17-17v-.56a39.29,39.29,0,0,1,3.22-16.57,68.14,68.14,0,0,1,5.54-9.7c1.85-2.71,4.38-4.94,6.7-7.26,8.84-8.76,18.07-17.08,25.58-27.09,6.36-8.45,10.39-18.46,9.11-29.41-1.33-11.89-6.66-22.32-13.61-32.37-2.58,1.94-4.85,3.7-6.74,5.16,3.13,6.44,6.09,12.32,8.8,18.29a27.81,27.81,0,0,1-.65,25c-3.09,5.88-6.52,11.89-10.9,16.83-.47.51-.95,1-1.38,1.5-7.38,7.82-16.14,14.17-23,22.54A49.63,49.63,0,0,0,23.1,327.05a56,56,0,0,0,4.08,22.15,10.47,10.47,0,0,0-4.46-1,10.74,10.74,0,1,0,10.6,12.37C44.1,376,62,384.53,73.68,382.56v-8.12C55.73,372.56,43.37,362.85,36.2,346.88ZM22.72,365.39A6.44,6.44,0,1,1,29.16,359,6.43,6.43,0,0,1,22.72,365.39Z"/><path class="cls-1" d="M270.86,442.36c-3-2.49-5.54-6.4-9.79-1A43.46,43.46,0,0,1,247,453.09a45.91,45.91,0,0,1-35.42,2.49C192,449,184.61,432,180.36,413.34c-3.61-15.93-8.33-32.28-21.25-43.27a48.72,48.72,0,0,0-20.22-10.31c-2-.47-22.41-2.7-22.41.13v8.37c2.1,0,3.78,0,5.45,0,10.52.05,22,.56,30.48,7.6,9.15,7.56,14,20.52,17,31.64,2.45,9.36,4,19.19,7.73,28.21a58,58,0,0,0,4.2,8.28c7.82,12.8,21.47,20.14,36,22.33a10.74,10.74,0,1,0,17.47,8.37,10.82,10.82,0,0,0-3.47-7.94C248,465.33,264.2,456.57,270.86,442.36ZM224,481.13a6.44,6.44,0,1,1,6.44-6.44A6.44,6.44,0,0,1,224,481.13Z"/><path class="cls-1" d="M177.56,436.27c-.13-.26-.3-.61-.52-1.08,0-.13,0-.21-.08-.34.26.3.51.6.73.9C177.69,436.05,177.65,436.22,177.56,436.27Z"/><path class="cls-1" d="M183,428.07s0-.05,0-.05v-.13s0,0,.08,0A.43.43,0,0,1,183,428.07Z"/><path class="cls-1" d="M177,434.85c.26.3.51.6.73.9,0,.3,0,.47-.13.52-.13-.26-.3-.61-.52-1.08C177,435.06,177,435,177,434.85Z"/><path class="cls-1" d="M183.05,427.85a.43.43,0,0,1,0,.22s0-.05,0-.05v-.13S183,427.85,183.05,427.85Z"/><path class="cls-1" d="M429.1,118.79a10.79,10.79,0,0,0-10.73,10.26,44.68,44.68,0,0,0-2.45-4,54.62,54.62,0,0,0-41.17-23.57c0,2.92,0,5.83,0,8.75a43.38,43.38,0,0,1,17.51,5.28c26.45,14.56,30.31,52.77,8.55,73.29-10.86,10.17-22.54,19.1-28.81,33.1-3,6.82-5.67,14.64-5.58,21.94.08,12.27,6.14,23.09,13.18,33.4l7.17-5.33c-2-3.56-3.78-6.74-5.54-9.83-4.81-8.54-7.17-18.29-4.42-27.9,2.45-8.63,8-16,14.12-22.41,8.42-8.8,18.21-16.49,25-26.45a50.52,50.52,0,0,0,5-9.14,55.08,55.08,0,0,0,1.2-38.6,10.18,10.18,0,0,0,7,2.71,10.74,10.74,0,0,0,0-21.47Zm0,17.17a6.44,6.44,0,1,1,6.44-6.44A6.49,6.49,0,0,1,429.1,136Z"/><path class="cls-1" d="M331.52,124.67l-.9-7.34a1.71,1.71,0,0,0-.39-1,1.5,1.5,0,0,0-1.16-.21c-9.66.51-19.83.3-28.33-4.38C290,105.83,284,94,280.56,82.21c-4.38-15-5.49-31.55-15.37-44.3a54.24,54.24,0,0,0-34.9-19.84,10.74,10.74,0,1,0-18.59-7.34,10.64,10.64,0,0,0,2.92,7.34c-16.14,2.41-31.64,11.85-36.88,24L185.25,46c10.35-15,25.07-20.56,42.2-18.89,11.08,1.07,21.38,5.75,28.72,14.21,8.93,10.35,10.22,23,13.06,35.85,4.25,19.44,14.55,37.6,33.83,45.2a53,53,0,0,0,14.29,3.4c1.2.08,14.34.12,14.21-.86A.51.51,0,0,0,331.52,124.67ZM222.43,17.17a6.44,6.44,0,1,1,6.44-6.44A6.43,6.43,0,0,1,222.43,17.17Z"/><path class="cls-1" d="M424.68,348.21a12.66,12.66,0,0,0-2.58.3c7.69-17,6.53-37.47-1.37-46.36-2.32,1.5-4.64,3-7,4.46,8.16,17,5.12,32.72-5.32,46.76a49.6,49.6,0,0,1-5.62,6.43,41,41,0,0,1-24.65,11.3c-7.08.68-13.6-.69-20.34-2.84-4.42-1.37-8.68-3.56-13.1-4.72a100.91,100.91,0,0,0-26.1-3.69c-1.89,0-3.73,0-5.58.21-17.77,1.51-36.71,17.13-40.61,34.35,2.4,1.16,4.89,2.32,7.47,3.56,1.8-3.13,3.17-5.92,4.93-8.5,5.54-8.24,11.12-16.44,21.73-19,8.33-2,16.83-2.49,25.11-.42,14.17,3.52,27.26,10.51,42.25,10.34a54.16,54.16,0,0,0,40.22-19.27,10.74,10.74,0,1,0,10.52-12.93Zm0,17.18a6.44,6.44,0,1,1,6.44-6.44A6.44,6.44,0,0,1,424.68,365.39Z"/><path class="cls-1" d="M103.93,165.92c-5.79,13-18.37,22.81-32,26.71-3.85,1.1-7.6,2.59-11.52,3.57C56.23,197.25,52,198,47.72,199c-7.84,1.74-15.55,4.18-21.95,9.2a46.38,46.38,0,0,0-13.93,18.7,42.34,42.34,0,0,0-3.09,12.63c-1.33,16.83,6.44,30.22,19.1,41.64-1.71,2.32-3.17,4.29-4.63,6.23-.9-.65-1.81-1.34-2.66-2.07A56.34,56.34,0,0,1,.94,251.61c-.22-1.11-.39-2.19-.52-3.3s-.26-2.23-.3-3.39a4.29,4.29,0,0,1,0-.73,47.53,47.53,0,0,1,6.7-27.48c.38-.64.77-1.24,1.15-1.84a50.28,50.28,0,0,1,8.18-9.75,55.22,55.22,0,0,1,5.39-4.39c13.06-9.38,29.32-10,44.16-14.78a76.9,76.9,0,0,0,8.4-3.22q2.07-.94,4.06-2c.47-.25,3.74-1.77,3.74-2.23,14.13-9.23,19.58-22.58,18-39.07-.38-3.9.82-4.76,7.69-4.93A51.23,51.23,0,0,1,103.93,165.92Z"/><path class="cls-1" d="M163,439.31c-17.13,6.91-34,6.44-49.67-2.32a51.25,51.25,0,0,1-25.63-35.31,57,57,0,0,1,1.24-26c2.43-8.6,5.69-17,7.48-25.75.23-1.09.43-2.2.6-3.31,3-19.92-1.25-36-22.2-47.14-5.79-3.09-5.83-3-3.35-10.73,4.08,2,8.29,3.48,11.94,5.88,17.34,11.42,24.3,27.61,22.62,48.22a50.75,50.75,0,0,1-.64,5.1c-.56,3.48-1.37,7.09-2.32,10.69-.26.91-.51,1.81-.77,2.71-.13.47-.26,1-.43,1.46-1.34,3.68-2.25,7.45-3.6,11.13a59.67,59.67,0,0,0-3.18,12.09c-2,13.89,3.82,28.4,14.2,37.72,10.19,9.13,24.09,12.81,37.56,11.24a60,60,0,0,0,12.81-3C160.81,434.46,161.8,436.56,163,439.31Z"/><path class="cls-1" d="M259.08,87.45a49,49,0,0,1-29,12.45c-15.07,1.41-27.78-4.55-38.6-14a177.62,177.62,0,0,1-15-15.23c-5.5-6.13-11.28-12.21-18.72-16a44.53,44.53,0,0,0-19.46-4.8,43.54,43.54,0,0,0-34.51,16.38,45,45,0,0,0-3.67,5.4A78.93,78.93,0,0,0,93.45,88c-1.24,4-3.73,3.7-6.52,3.18-3.22-.64-2.36-2.92-1.76-5.15,6.14-22.84,19.1-39.07,43.31-43.49,1-.17,2-.34,3.05-.47,8.89-1.11,17.86-.39,26.18,3.08a50,50,0,0,1,10.48,6.06A75.74,75.74,0,0,1,177.62,60q8.1,8.38,16.3,16.66c5.11,5.12,11.43,8.94,18,12,12.54,5.92,24.64,3.3,36.19-3.44,1.63-.94,3.18-2,4.77-3,.08-.08.3,0,.81-.08C255.26,83.71,257,85.43,259.08,87.45Z"/><path class="cls-1" d="M448,246.51a51.83,51.83,0,0,1-10.82,27.28c-13.23,16.57-36.34,19.8-55.42,25.57l-2.23.67c-8.4,2.6-16.62,7.17-22.32,14A36.48,36.48,0,0,0,350.19,328a63.21,63.21,0,0,0-1.63,13.87c-.25,6.83,0,6.83-7.42,7.94-1,.15-1.18-12.65-1.1-13.79a48.19,48.19,0,0,1,3.26-14.24c8-20.21,28.18-29.37,48-34.24,1.6-.39,3.21-.77,4.82-1.13,7.91-1.76,15.58-2.77,22.64-7a43.92,43.92,0,0,0,21.09-38.49,47.07,47.07,0,0,0-4.93-19.25,55.79,55.79,0,0,0-5.94-9.45c-.64-.83-8.05-8.81-8.13-8.68,1.41-2.11,2.87-4.21,4.63-6.79C441.17,210,450,226.29,448,246.51Z"/><path class="cls-1" d="M375.35,194.65c-16.61-4.16-31.47-22.62-32.84-40.05A85.42,85.42,0,0,1,347.57,118a95.17,95.17,0,0,0,3.9-12,47.86,47.86,0,0,0,.43-18.7,52.21,52.21,0,0,0-5.38-16.51c-.55-1-1.13-2-1.76-3a38.9,38.9,0,0,0-7.19-8.38c-.73-.55-1.46-1.15-2.23-1.71-13.95-10.31-29.84-10.82-46.45-5.07-1.07-2.23-2.15-4.42-3.69-7.6,4.81-1.29,9.14-3,13.56-3.65a61.53,61.53,0,0,1,28.1,2.43,51.72,51.72,0,0,1,20.79,13.3,52.4,52.4,0,0,1,11.92,20.52,53.17,53.17,0,0,1,2.2,11.8c.86,12.44-3.93,23.73-7.61,35.33a79.35,79.35,0,0,0-3.5,18.26c-.11,1.44-.16,2.88-.16,4.32-.09,17,7.51,29.28,22.36,37.3C378.7,187.83,378.79,188.21,375.35,194.65Z"/><path class="cls-1" d="M362.82,400.51c-2.51,8.54-6.27,16.86-11.89,23.82a48.68,48.68,0,0,1-20.58,14.93c-10.79,4.1-23.63,5.43-34.7,1.67-8.37-2.84-15.81-8.09-22.34-13.95-5.87-5.28-10.43-11.77-16.2-17.16a81.31,81.31,0,0,0-15.92-11.72c-14.29-7.94-28.12-6.61-41.64,1.89-1.59,1-3.13,2.06-5.07,3.35-1.8-1.67-3.56-3.35-5.79-5.36,6.48-6.49,14.12-10.09,22.49-12.11,17.91-4.29,33.15,1.84,46.41,13.26.56.48,1.12.95,1.68,1.51.86.77,1.71,1.59,2.62,2.44,1.54,1.51,3.13,3.14,4.72,4.81,4.07,4.25,8.08,8.58,12,13a43.43,43.43,0,0,0,30,14,45.89,45.89,0,0,0,18.68-3.46c16.74-6.7,24.73-20.78,28.85-37.48C363.72,392.35,364.92,393.34,362.82,400.51Z"/><path class="cls-1" d="M280.9,423.65s.05-.13.05-.17C281.12,423.65,281.08,423.69,280.9,423.65Z"/><path class="cls-1" d="M169.28,86.46c-3.17,4.94-5.92,9.49-9,13.83C154.86,108,148,113.9,138.2,114.63c-6.82.47-13.91.94-20.52-.39-10.13-2.53-20-6.27-30.18-8.54-5.71-1.25-11.51-2.36-17.39-1.76-14.64,1.46-28.63,10-37.35,21.68-.68.9-1.29,1.8-1.89,2.74a10.74,10.74,0,1,0-10.69,11.9,10.3,10.3,0,0,0,5.33-1.46c-5.84,15-5.33,32.07,2.32,43.57,2.4-1.59,4.85-3.18,7.25-4.72-4.33-9.23-5.79-19.53-3.13-29.45,4-15.16,15.41-28.42,30.52-33.1a45.73,45.73,0,0,1,25.2,0c5.58,1.45,10.82,3.9,16.31,5.58a81.58,81.58,0,0,0,25.46,3.86c23.36-.52,38.9-11.89,47.61-34.9C174.44,88.52,171.77,87.45,169.28,86.46ZM20.18,136a6.44,6.44,0,1,1,6.44-6.44A6.46,6.46,0,0,1,20.18,136Z"/><path class="cls-1" d="M184.39,120.12v4.29h19.54a20.6,20.6,0,0,0,41,0H264.5v-4.29Zm40.06,18.76a16.31,16.31,0,0,1-16.14-14.17h32.28A16.31,16.31,0,0,1,224.45,138.88Z"/><path class="cls-1" d="M244.33,363a20.59,20.59,0,0,0-41,0H183.75v4.3H263.9V363Zm-36.67-.3a16.31,16.31,0,0,1,32.33,0Z"/><path class="cls-1" d="M316.75,149.14l-3.69,2.19L323,168.2a20.58,20.58,0,0,0,20.78,35.34l9.91,16.87,3.69-2.19Zm4.17,44.05a16.3,16.3,0,0,1,4-21.12l16.4,27.86A16.3,16.3,0,0,1,320.92,193.19Z"/><path class="cls-1" d="M130.56,167.09l9.92-16.87-3.7-2.19L96.17,217.1l3.69,2.19,9.92-16.87a20.58,20.58,0,0,0,20.78-35.33Zm2.06,25a16.3,16.3,0,0,1-20.39,6.74L128.58,171A16.37,16.37,0,0,1,132.62,192.07Z"/><path class="cls-1" d="M347.32,270.12,337.4,287a20.56,20.56,0,0,0-20.78,35.29l-10,16.92,3.74,2.19L351,272.31Zm-28.77,48.34a16.3,16.3,0,0,1,16.36-27.86Z"/><path class="cls-1" d="M130.39,322.24a20.57,20.57,0,0,0-20.78-35.33L99.69,270,96,272.23l40.61,69.07,3.7-2.19ZM112.1,290.47a16.3,16.3,0,0,1,16.36,27.86Z"/><rect class="cls-1" x="400.9" y="221.88" width="19.68" height="6.09"/><rect class="cls-1" x="394.94" y="257.53" width="19.68" height="6.09"/><rect class="cls-1" x="386.94" y="239.71" width="44.12" height="6.09"/><rect class="cls-1" x="28.09" y="221.88" width="19.68" height="6.09"/><rect class="cls-1" x="34.05" y="257.53" width="19.68" height="6.09"/><rect class="cls-1" x="17.59" y="239.71" width="44.12" height="6.09"/><rect class="cls-1" x="294.2" y="66.65" width="19.68" height="6.09" transform="translate(44.91 243.34) rotate(-46.74)"/><rect class="cls-1" x="316.07" y="95.43" width="19.68" height="6.09" transform="translate(30.84 268.32) rotate(-46.74)"/><rect class="cls-1" x="293.77" y="80.13" width="44.12" height="6.09" transform="translate(38.81 256.17) rotate(-46.74)"/><rect class="cls-1" x="143" y="61.87" width="6.09" height="19.68" transform="matrix(0.85, -0.53, 0.53, 0.85, -15.72, 89.15)"/><rect class="cls-1" x="116.05" y="85.96" width="6.09" height="19.68" transform="translate(-32.76 78.48) rotate(-32.31)"/><rect class="cls-1" x="128.85" y="60.63" width="6.09" height="44.12" transform="translate(-23.78 83.29) rotate(-32.31)"/><rect class="cls-1" x="300.56" y="404.09" width="6.09" height="19.68" transform="matrix(0.84, -0.54, 0.54, 0.84, -176.01, 230.94)"/><rect class="cls-1" x="327.28" y="379.74" width="6.09" height="19.68" transform="translate(-158.52 241.53) rotate(-32.86)"/><rect class="cls-1" x="314.6" y="380.75" width="6.09" height="44.12" transform="matrix(0.84, -0.54, 0.54, 0.84, -167.72, 236.77)"/><rect class="cls-1" x="131.92" y="414.8" width="19.68" height="6.09" transform="translate(-240.03 196.66) rotate(-41.17)"/><rect class="cls-1" x="112.94" y="384.04" width="19.68" height="6.09" transform="translate(-224.47 176.55) rotate(-41.17)"/><rect class="cls-1" x="109.27" y="400.24" width="44.12" height="6.09" transform="translate(-233.03 186.19) rotate(-41.17)"/></g></g></svg>