<svg xmlns="http://www.w3.org/2000/svg" xmlns:xlink="http://www.w3.org/1999/xlink" viewBox="0 0 342.69 371.06"><defs><style>.cls-1{fill:url(#linear-gradient);}.cls-2{fill:url(#linear-gradient-2);}.cls-3{fill:url(#linear-gradient-3);}.cls-4{fill:url(#linear-gradient-6);}.cls-5{fill:url(#linear-gradient-7);}.cls-6{fill:url(#linear-gradient-9);}.cls-7{fill:url(#linear-gradient-10);}.cls-8{fill:url(#linear-gradient-11);}.cls-9{fill:url(#linear-gradient-16);}.cls-10{fill:url(#linear-gradient-17);}.cls-11{fill:url(#linear-gradient-18);}.cls-12{fill:url(#linear-gradient-19);}.cls-13{fill:url(#linear-gradient-20);}.cls-14{fill:url(#linear-gradient-21);}.cls-15{fill:url(#linear-gradient-22);}.cls-16{fill:url(#linear-gradient-23);}.cls-17{fill:url(#linear-gradient-24);}.cls-18{fill:url(#linear-gradient-26);}.cls-19{fill:url(#linear-gradient-27);}.cls-20{fill:url(#linear-gradient-28);}.cls-21{fill:url(#linear-gradient-29);}.cls-22{fill:url(#linear-gradient-30);}.cls-23{fill:url(#linear-gradient-31);}.cls-24{fill:url(#linear-gradient-32);}.cls-25{fill:url(#linear-gradient-33);}.cls-26{fill:url(#linear-gradient-34);}.cls-27{fill:url(#linear-gradient-35);}.cls-28{fill:url(#linear-gradient-36);}.cls-29{fill:url(#linear-gradient-37);}.cls-30{fill:url(#linear-gradient-38);}.cls-31{fill:url(#linear-gradient-39);}.cls-32{fill:url(#linear-gradient-40);}.cls-33{fill:url(#linear-gradient-41);}.cls-34{fill:url(#linear-gradient-42);}.cls-35{fill:url(#linear-gradient-43);}.cls-36{fill:url(#linear-gradient-44);}.cls-37{fill:url(#linear-gradient-45);}.cls-38{fill:url(#linear-gradient-46);}.cls-39{fill:url(#linear-gradient-47);}.cls-40{fill:url(#linear-gradient-48);}.cls-41{fill:url(#linear-gradient-49);}.cls-42{fill:url(#linear-gradient-50);}</style><linearGradient id="linear-gradient" x1="214.72" y1="323.78" x2="214.83" y2="323.78" gradientUnits="userSpaceOnUse"><stop offset="0" stop-color="#ed1b5e"/><stop offset="1" stop-color="#febf10"/></linearGradient><linearGradient id="linear-gradient-2" x1="135.27" y1="332.94" x2="135.83" y2="332.94" xlink:href="#linear-gradient"/><linearGradient id="linear-gradient-3" x1="139.86" y1="327.13" x2="139.93" y2="327.13" xlink:href="#linear-gradient"/><linearGradient id="linear-gradient-6" x1="214.72" y1="323.78" x2="214.84" y2="323.78" xlink:href="#linear-gradient"/><linearGradient id="linear-gradient-7" x1="231.4" y1="338.55" x2="241.8" y2="338.55" xlink:href="#linear-gradient"/><linearGradient id="linear-gradient-9" x1="139.86" y1="327.1" x2="139.93" y2="327.1" xlink:href="#linear-gradient"/><linearGradient id="linear-gradient-10" x1="9.16" y1="225.39" x2="63" y2="225.39" xlink:href="#linear-gradient"/><linearGradient id="linear-gradient-11" x1="89.04" y1="322.54" x2="207.05" y2="322.54" xlink:href="#linear-gradient"/><linearGradient id="linear-gradient-16" x1="280.06" y1="144.72" x2="336.21" y2="144.72" xlink:href="#linear-gradient"/><linearGradient id="linear-gradient-17" x1="135.87" y1="48.08" x2="253.45" y2="48.08" xlink:href="#linear-gradient"/><linearGradient id="linear-gradient-18" x1="208.26" y1="267.59" x2="332.83" y2="267.59" xlink:href="#linear-gradient"/><linearGradient id="linear-gradient-19" x1="0" y1="161.23" x2="83.01" y2="161.23" xlink:href="#linear-gradient"/><linearGradient id="linear-gradient-20" x1="53.47" y1="280.1" x2="124.63" y2="280.1" xlink:href="#linear-gradient"/><linearGradient id="linear-gradient-21" x1="64.66" y1="54.15" x2="198.04" y2="54.15" xlink:href="#linear-gradient"/><linearGradient id="linear-gradient-22" x1="259.92" y1="208.85" x2="342.69" y2="208.85" xlink:href="#linear-gradient"/><linearGradient id="linear-gradient-23" x1="218.01" y1="89.99" x2="288.68" y2="89.99" xlink:href="#linear-gradient"/><linearGradient id="linear-gradient-24" x1="144.23" y1="316.33" x2="278.04" y2="316.33" xlink:href="#linear-gradient"/><linearGradient id="linear-gradient-26" x1="7.22" y1="102.75" x2="135.34" y2="102.75" xlink:href="#linear-gradient"/><linearGradient id="linear-gradient-27" x1="140.95" y1="100.63" x2="202.19" y2="100.63" xlink:href="#linear-gradient"/><linearGradient id="linear-gradient-28" x1="140.46" y1="271.99" x2="201.73" y2="271.99" xlink:href="#linear-gradient"/><linearGradient id="linear-gradient-29" x1="239.3" y1="141.24" x2="273.17" y2="141.24" xlink:href="#linear-gradient"/><linearGradient id="linear-gradient-30" x1="73.51" y1="140.39" x2="107.38" y2="140.39" xlink:href="#linear-gradient"/><linearGradient id="linear-gradient-31" x1="234.42" y1="233.72" x2="268.31" y2="233.72" xlink:href="#linear-gradient"/><linearGradient id="linear-gradient-32" x1="73.38" y1="233.66" x2="107.25" y2="233.66" xlink:href="#linear-gradient"/><linearGradient id="linear-gradient-33" x1="306.45" y1="171.93" x2="321.49" y2="171.93" xlink:href="#linear-gradient"/><linearGradient id="linear-gradient-34" x1="301.89" y1="199.19" x2="316.93" y2="199.19" xlink:href="#linear-gradient"/><linearGradient id="linear-gradient-35" x1="295.78" y1="185.56" x2="329.51" y2="185.56" xlink:href="#linear-gradient"/><linearGradient id="linear-gradient-36" x1="21.47" y1="171.93" x2="36.51" y2="171.93" xlink:href="#linear-gradient"/><linearGradient id="linear-gradient-37" x1="26.03" y1="199.19" x2="41.07" y2="199.19" xlink:href="#linear-gradient"/><linearGradient id="linear-gradient-38" x1="13.45" y1="185.56" x2="47.17" y2="185.56" xlink:href="#linear-gradient"/><linearGradient id="linear-gradient-39" x1="225.56" y1="53.28" x2="239.25" y2="53.28" gradientTransform="translate(111.93 -152.48) rotate(46.74)" xlink:href="#linear-gradient"/><linearGradient id="linear-gradient-40" x1="242.28" y1="75.27" x2="255.98" y2="75.27" gradientTransform="translate(133.21 -157.74) rotate(46.74)" xlink:href="#linear-gradient"/><linearGradient id="linear-gradient-41" x1="228.17" y1="63.58" x2="254.67" y2="63.58" gradientTransform="translate(122.27 -155.81) rotate(46.74)" xlink:href="#linear-gradient"/><linearGradient id="linear-gradient-42" x1="105.65" y1="54.81" x2="117.62" y2="54.81" gradientTransform="translate(46.58 -51.18) rotate(32.31)" xlink:href="#linear-gradient"/><linearGradient id="linear-gradient-43" x1="85.05" y1="73.23" x2="97.02" y2="73.23" gradientTransform="translate(53.23 -37.32) rotate(32.31)" xlink:href="#linear-gradient"/><linearGradient id="linear-gradient-44" x1="89.84" y1="63.21" x2="111.8" y2="63.21" gradientTransform="translate(49.39 -44.1) rotate(32.31)" xlink:href="#linear-gradient"/><linearGradient id="linear-gradient-45" x1="226.05" y1="316.41" x2="238.11" y2="316.41" gradientTransform="translate(208.79 -75.3) rotate(32.86)" xlink:href="#linear-gradient"/><linearGradient id="linear-gradient-46" x1="246.47" y1="297.8" x2="258.54" y2="297.8" gradientTransform="translate(201.96 -89.35) rotate(32.86)" xlink:href="#linear-gradient"/><linearGradient id="linear-gradient-47" x1="231.71" y1="307.91" x2="253.91" y2="307.91" gradientTransform="translate(205.89 -82.48) rotate(32.86)" xlink:href="#linear-gradient"/><linearGradient id="linear-gradient-48" x1="101.17" y1="319.4" x2="115.55" y2="319.4" gradientTransform="translate(237.08 7.64) rotate(41.17)" xlink:href="#linear-gradient"/><linearGradient id="linear-gradient-49" x1="86.66" y1="295.89" x2="101.04" y2="295.89" gradientTransform="translate(218.01 11.38) rotate(41.17)" xlink:href="#linear-gradient"/><linearGradient id="linear-gradient-50" x1="86.16" y1="308.27" x2="114.61" y2="308.27" gradientTransform="translate(227.78 10.14) rotate(41.17)" xlink:href="#linear-gradient"/></defs><g id="Layer_2" data-name="Layer 2"><g id="Layer_1-2" data-name="Layer 1"><path class="cls-1" d="M214.75,323.7s0,.1,0,.14S214.88,323.84,214.75,323.7Z"/><path class="cls-2" d="M135.27,332.4c0,.1,0,.16.06.26.17.36.3.63.4.82.06,0,.1-.16.1-.39C135.66,332.86,135.47,332.63,135.27,332.4Z"/><path class="cls-3" d="M139.86,327.08v.1a0,0,0,0,0,0,0,.34.34,0,0,0,0-.17S139.9,327.08,139.86,327.08Z"/><path class="cls-2" d="M135.83,333.09c0,.23,0,.36-.1.39-.1-.19-.23-.46-.4-.82,0-.1,0-.16-.06-.26C135.47,332.63,135.66,332.86,135.83,333.09Z"/><path class="cls-3" d="M139.93,327.05a.34.34,0,0,1,0,.17,0,0,0,0,1,0,0v0Z"/><path class="cls-4" d="M214.76,323.71c.13.13.1.16,0,.13S214.76,323.74,214.76,323.71Z"/><path class="cls-5" d="M241.8,338.38a34.22,34.22,0,0,1-10.4,0A41.1,41.1,0,0,0,241.8,338.38Z"/><path class="cls-2" d="M135.83,333.09c0,.23,0,.36-.1.39-.1-.19-.23-.46-.4-.82,0-.1,0-.16-.06-.26C135.47,332.63,135.66,332.86,135.83,333.09Z"/><path class="cls-6" d="M139.93,327.05l-.07.1v-.07S139.9,327.05,139.93,327.05Z"/><path class="cls-7" d="M27.67,265.16a34.91,34.91,0,0,1-3.18-13v-.43A29.92,29.92,0,0,1,27,239a50.62,50.62,0,0,1,4.23-7.42,41.29,41.29,0,0,1,5.12-5.55c6.76-6.69,13.82-13.06,19.56-20.7,4.86-6.47,7.94-14.11,7-22.48-1-9.09-5.09-17.07-10.41-24.75-2,1.48-3.71,2.83-5.15,3.94,2.4,4.92,4.66,9.42,6.73,14a21.3,21.3,0,0,1-.49,19.1A64.81,64.81,0,0,1,45.16,208c-.36.39-.72.75-1,1.14-5.64,6-12.34,10.83-17.59,17.23A37.83,37.83,0,0,0,17.66,250a42.69,42.69,0,0,0,3.12,16.93,8,8,0,0,0-3.42-.75,8.21,8.21,0,1,0,8.11,9.45c8.24,11.75,21.89,18.31,30.85,16.8v-6.2C42.6,284.78,33.15,277.37,27.67,265.16ZM17.36,279.3a4.92,4.92,0,1,1,4.93-4.92A4.92,4.92,0,0,1,17.36,279.3Z"/><path class="cls-8" d="M207.05,338.14c-2.27-1.9-4.24-4.89-7.49-.75a33.32,33.32,0,0,1-10.76,9,35.13,35.13,0,0,1-27.07,1.9c-15-5-20.61-18-23.86-32.29-2.76-12.18-6.37-24.68-16.25-33.08A37.38,37.38,0,0,0,106.17,275c-1.55-.36-17.13-2.06-17.13.1v6.4c1.6,0,2.88,0,4.16,0,8,0,16.81.43,23.3,5.81,7,5.78,10.7,15.69,13,24.19,1.87,7.15,3.08,14.67,5.9,21.56a43.76,43.76,0,0,0,3.22,6.33c6,9.78,16.41,15.39,27.5,17.07a8.21,8.21,0,1,0,13.36,6.39,8.3,8.3,0,0,0-2.66-6.07C189.59,355.7,202,349,207.05,338.14Zm-35.81,29.64a4.93,4.93,0,1,1,4.93-4.93A4.92,4.92,0,0,1,171.24,367.78Z"/><path class="cls-2" d="M135.73,333.48c-.1-.19-.23-.46-.4-.82,0-.1,0-.16-.06-.26.2.23.39.46.56.69C135.83,333.32,135.79,333.45,135.73,333.48Z"/><path class="cls-3" d="M139.9,327.22a0,0,0,0,1,0,0v-.1s0,0,.07,0A.34.34,0,0,1,139.9,327.22Z"/><path class="cls-2" d="M135.27,332.4c.2.23.39.46.56.69,0,.23,0,.36-.1.39-.1-.19-.23-.46-.4-.82C135.3,332.56,135.3,332.5,135.27,332.4Z"/><path class="cls-3" d="M139.93,327.05a.34.34,0,0,1,0,.17,0,0,0,0,1,0,0v-.1S139.9,327.05,139.93,327.05Z"/><path class="cls-9" d="M328,90.8a8.25,8.25,0,0,0-8.21,7.85,32.16,32.16,0,0,0-1.87-3.09,41.73,41.73,0,0,0-31.47-18c0,2.23,0,4.46,0,6.69a33,33,0,0,1,13.39,4c20.21,11.12,23.17,40.33,6.53,56-8.3,7.77-17.23,14.6-22,25.3-2.33,5.21-4.33,11.19-4.27,16.77.07,9.38,4.7,17.65,10.08,25.53,1.93-1.45,3.71-2.76,5.48-4.07-1.55-2.73-2.89-5.15-4.24-7.52-3.67-6.53-5.48-14-3.38-21.33,1.87-6.59,6.14-12.24,10.8-17.13,6.43-6.73,13.92-12.6,19.13-20.21a38.86,38.86,0,0,0,3.81-7,42.14,42.14,0,0,0,.92-29.51,7.74,7.74,0,0,0,5.35,2.07,8.21,8.21,0,0,0,0-16.41Zm0,13.13A4.92,4.92,0,1,1,332.93,99,5,5,0,0,1,328,103.93Z"/><path class="cls-10" d="M253.42,95.3l-.69-5.61a1.32,1.32,0,0,0-.3-.79,1.14,1.14,0,0,0-.89-.16c-7.38.39-15.16.23-21.65-3.35-8.21-4.5-12.8-13.55-15.43-22.55-3.35-11.48-4.2-24.12-11.75-33.86A41.43,41.43,0,0,0,176,13.82,8.21,8.21,0,1,0,161.82,8.2a8.17,8.17,0,0,0,2.24,5.62c-12.34,1.83-24.19,9.05-28.19,18.34l5.74,3c7.91-11.49,19.16-15.72,32.26-14.44a32.78,32.78,0,0,1,21.95,10.86c6.83,7.91,7.81,17.56,10,27.4,3.25,14.87,11.12,28.75,25.86,34.56a40.33,40.33,0,0,0,10.93,2.59c.91.07,11,.1,10.86-.66A.39.39,0,0,0,253.42,95.3ZM170,13.13A4.93,4.93,0,1,1,175,8.2,4.91,4.91,0,0,1,170,13.13Z"/><path class="cls-11" d="M324.63,266.18a9.58,9.58,0,0,0-2,.23c5.87-13,5-28.65-1.05-35.45-1.77,1.15-3.55,2.3-5.32,3.42,6.24,13,3.91,25-4.07,35.73a37.88,37.88,0,0,1-4.3,4.93,31.35,31.35,0,0,1-18.83,8.63c-5.42.52-10.41-.53-15.56-2.17-3.38-1.05-6.63-2.72-10-3.61a77.19,77.19,0,0,0-19.95-2.82c-1.44,0-2.85,0-4.27.16-13.58,1.15-28.05,13.1-31,26.26,1.84.88,3.74,1.77,5.71,2.72,1.38-2.39,2.43-4.53,3.77-6.5,4.24-6.3,8.5-12.57,16.61-14.5a40.5,40.5,0,0,1,19.2-.33c10.83,2.69,20.83,8,32.29,7.91a41.41,41.41,0,0,0,30.75-14.74,8.21,8.21,0,1,0,8-9.87Zm0,13.12a4.92,4.92,0,1,1,4.92-4.92A4.92,4.92,0,0,1,324.63,279.3Z"/><path class="cls-12" d="M79.44,126.83c-4.42,9.94-14,17.44-24.43,20.41-2.94.85-5.81,2-8.81,2.73-3.22.81-6.48,1.41-9.72,2.13-6,1.33-11.89,3.2-16.78,7a35.45,35.45,0,0,0-10.65,14.3,32.49,32.49,0,0,0-2.36,9.65c-1,12.87,4.92,23.1,14.6,31.83-1.31,1.78-2.43,3.28-3.54,4.76-.69-.49-1.38-1-2-1.57a43.2,43.2,0,0,1-15-25.76c-.17-.86-.3-1.68-.4-2.53s-.19-1.71-.23-2.59a3.32,3.32,0,0,1,0-.56,36.39,36.39,0,0,1,5.12-21c.29-.5.59-1,.89-1.42a38.38,38.38,0,0,1,6.25-7.45,42.6,42.6,0,0,1,4.11-3.35c10-7.17,22.42-7.64,33.76-11.29a61.58,61.58,0,0,0,6.42-2.47c1-.48,2.09-1,3.11-1.56.36-.19,2.86-1.35,2.86-1.7,10.79-7.06,15-17.27,13.78-29.87-.3-3,.62-3.64,5.87-3.77A39.12,39.12,0,0,1,79.44,126.83Z"/><path class="cls-13" d="M124.63,335.81c-13.09,5.28-26,4.92-38-1.77a39.21,39.21,0,0,1-19.59-27A43.69,43.69,0,0,1,68,287.2c1.86-6.57,4.35-13,5.73-19.68.17-.84.32-1.68.45-2.53,2.33-15.23-1-27.5-17-36-4.43-2.36-4.47-2.3-2.56-8.21,3.11,1.51,6.33,2.66,9.12,4.5,13.26,8.73,18.57,21.1,17.29,36.85a38.31,38.31,0,0,1-.49,3.91c-.43,2.66-1,5.41-1.77,8.17-.2.69-.39,1.38-.59,2.07-.1.36-.2.75-.33,1.11-1,2.82-1.72,5.7-2.75,8.52a45.41,45.41,0,0,0-2.43,9.24c-1.51,10.61,2.92,21.71,10.85,28.83s18.42,9.79,28.71,8.59a45.67,45.67,0,0,0,9.79-2.28C122.93,332.1,123.68,333.71,124.63,335.81Z"/><path class="cls-14" d="M198,66.84a37.39,37.39,0,0,1-22.18,9.52c-11.52,1.08-21.23-3.48-29.5-10.73A133.6,133.6,0,0,1,134.93,54c-4.21-4.68-8.63-9.33-14.32-12.2a34.16,34.16,0,0,0-14.87-3.67A33.3,33.3,0,0,0,79.36,50.64a34.84,34.84,0,0,0-2.8,4.13,59.61,59.61,0,0,0-5.12,12.5c-1,3-2.86,2.82-5,2.43-2.46-.49-1.81-2.23-1.35-3.94C69.8,48.3,79.71,35.9,98.21,32.52c.79-.13,1.55-.26,2.33-.36a39,39,0,0,1,20,2.36,38.5,38.5,0,0,1,8,4.62,59.23,59.23,0,0,1,7.21,6.69q6.18,6.41,12.46,12.74A48.16,48.16,0,0,0,162,67.76c9.58,4.53,18.83,2.53,27.66-2.62,1.25-.72,2.43-1.51,3.64-2.27.07-.06.23,0,.63-.06Z"/><path class="cls-15" d="M342.48,188.44a39.67,39.67,0,0,1-8.28,20.85c-10.1,12.66-27.77,15.13-42.36,19.54l-1.7.52c-6.43,2-12.71,5.48-17.06,10.73a27.81,27.81,0,0,0-5.39,10.61,48.23,48.23,0,0,0-1.25,10.6c-.19,5.22,0,5.22-5.67,6.07-.74.11-.9-9.67-.84-10.54a37.09,37.09,0,0,1,2.49-10.89c6.11-15.45,21.54-22.45,36.67-26.17,1.22-.3,2.45-.59,3.69-.86,6-1.35,11.9-2.12,17.3-5.38A33.56,33.56,0,0,0,336.2,184.1a35.86,35.86,0,0,0-3.77-14.71,42,42,0,0,0-4.54-7.23c-.49-.63-6.15-6.74-6.22-6.64,1.09-1.61,2.2-3.21,3.55-5.18C337.23,160.51,344,173,342.48,188.44Z"/><path class="cls-16" d="M286.92,148.79c-12.7-3.18-24.05-17.29-25.1-30.61a65.09,65.09,0,0,1,3.87-28,75.73,75.73,0,0,0,3-9.15,36.43,36.43,0,0,0,.32-14.3,39.87,39.87,0,0,0-4.11-12.62c-.42-.78-.86-1.55-1.34-2.3a30,30,0,0,0-5.5-6.39c-.55-.43-1.11-.89-1.7-1.32-10.67-7.87-22.81-8.27-35.51-3.87-.82-1.71-1.64-3.38-2.82-5.81,3.67-1,7-2.33,10.37-2.79a47.06,47.06,0,0,1,21.47,1.85A39.44,39.44,0,0,1,265.74,43.7a40.12,40.12,0,0,1,10.8,24.7c.65,9.51-3,18.14-5.82,27a61,61,0,0,0-2.68,14c-.07,1.09-.12,2.19-.12,3.29-.06,13,5.74,22.38,17.1,28.52C289.48,143.58,289.55,143.87,286.92,148.79Z"/><path class="cls-17" d="M277.34,306.15a52.22,52.22,0,0,1-9.09,18.21,37.13,37.13,0,0,1-15.73,11.41c-8.24,3.14-18.06,4.15-26.53,1.28-6.39-2.17-12.08-6.18-17.07-10.67-4.49-4-8-9-12.38-13.11a62.12,62.12,0,0,0-12.17-9c-10.93-6.07-21.5-5.05-31.83,1.45-1.22.75-2.4,1.57-3.88,2.56-1.37-1.28-2.72-2.56-4.43-4.11a35.18,35.18,0,0,1,17.2-9.25c13.68-3.28,25.34,1.41,35.48,10.14.42.36.85.72,1.28,1.15.65.59,1.31,1.21,2,1.87,1.18,1.15,2.39,2.4,3.61,3.68q4.66,4.86,9.15,9.93a33.22,33.22,0,0,0,22.9,10.7,35.12,35.12,0,0,0,14.28-2.65c12.8-5.12,18.91-15.88,22.06-28.65C278,299.92,279,300.67,277.34,306.15Z"/><path class="cls-4" d="M214.72,323.84s0-.1,0-.13C214.89,323.84,214.86,323.87,214.72,323.84Z"/><path class="cls-18" d="M129.4,66.09c-2.43,3.78-4.53,7.26-6.86,10.57-4.17,5.87-9.42,10.4-16.9,11C100.42,88,95,88.34,90,87.33c-7.75-1.94-15.26-4.8-23.07-6.54-4.37-1-8.8-1.8-13.3-1.34C42.4,80.57,31.71,87.1,25,96c-.52.69-1,1.38-1.44,2.1a8.21,8.21,0,1,0-8.17,9.09,7.84,7.84,0,0,0,4.07-1.11c-4.47,11.45-4.07,24.51,1.77,33.31,1.84-1.22,3.71-2.43,5.55-3.61a32.82,32.82,0,0,1-2.4-22.52C27.51,101.7,36.2,91.56,47.75,88A35.06,35.06,0,0,1,67,88c4.26,1.11,8.27,3,12.47,4.27a62.42,62.42,0,0,0,19.46,3c17.85-.4,29.73-9.09,36.39-26.68C133.34,67.67,131.3,66.85,129.4,66.09Zm-114,37.84A4.92,4.92,0,1,1,20.35,99,4.93,4.93,0,0,1,15.43,103.93Z"/><path class="cls-19" d="M141,91.82V95.1h14.93a15.75,15.75,0,0,0,31.38,0h14.93V91.82Zm30.62,14.34a12.46,12.46,0,0,1-12.34-10.83h24.68A12.46,12.46,0,0,1,171.57,106.16Z"/><path class="cls-20" d="M186.77,277.5a15.74,15.74,0,0,0-31.35,0h-15v3.28h61.27V277.5Zm-28-.23a12.47,12.47,0,0,1,24.71,0Z"/><path class="cls-21" d="M242.13,114l-2.83,1.67,7.58,12.9a15.73,15.73,0,0,0,15.89,27l7.58,12.9,2.82-1.67Zm3.18,33.67a12.47,12.47,0,0,1,3.05-16.15l12.54,21.3A12.47,12.47,0,0,1,245.31,147.68Z"/><path class="cls-22" d="M99.8,127.72l7.58-12.89-2.82-1.68-31,52.8,2.83,1.68,7.58-12.9a15.73,15.73,0,0,0,15.88-27Zm1.58,19.1A12.47,12.47,0,0,1,85.79,152l12.5-21.29A12.51,12.51,0,0,1,101.38,146.82Z"/><path class="cls-23" d="M265.49,206.48l-7.58,12.9a15.72,15.72,0,0,0-15.88,27l-7.61,12.93,2.85,1.67,31-52.8Zm-22,37A12.46,12.46,0,0,1,256,222.14Z"/><path class="cls-24" d="M99.67,246.32a15.73,15.73,0,0,0-15.88-27L76.2,206.42l-2.82,1.67,31.05,52.8,2.82-1.67ZM85.69,222a12.46,12.46,0,0,1,12.5,21.3Z"/><rect class="cls-25" x="306.45" y="169.61" width="15.04" height="4.65"/><rect class="cls-26" x="301.89" y="196.86" width="15.04" height="4.65"/><rect class="cls-27" x="295.78" y="183.23" width="33.73" height="4.65"/><rect class="cls-28" x="21.47" y="169.61" width="15.04" height="4.65"/><rect class="cls-29" x="26.03" y="196.86" width="15.04" height="4.65"/><rect class="cls-30" x="13.45" y="183.23" width="33.73" height="4.65"/><rect class="cls-31" x="224.89" y="50.95" width="15.04" height="4.65" transform="translate(34.33 186.01) rotate(-46.74)"/><rect class="cls-32" x="241.61" y="72.95" width="15.04" height="4.65" transform="translate(23.58 205.11) rotate(-46.74)"/><rect class="cls-33" x="224.56" y="61.25" width="33.73" height="4.65" transform="translate(29.67 195.82) rotate(-46.74)"/><rect class="cls-34" x="109.31" y="47.29" width="4.65" height="15.04" transform="translate(-12.01 68.15) rotate(-32.31)"/><rect class="cls-35" x="88.71" y="65.71" width="4.65" height="15.04" transform="translate(-25.05 59.99) rotate(-32.31)"/><rect class="cls-36" x="98.5" y="46.35" width="4.65" height="33.73" transform="translate(-18.18 63.67) rotate(-32.31)"/><rect class="cls-37" x="229.75" y="308.89" width="4.65" height="15.04" transform="translate(-134.54 176.53) rotate(-32.86)"/><rect class="cls-38" x="250.17" y="290.28" width="4.65" height="15.04" transform="matrix(0.84, -0.54, 0.54, 0.84, -121.17, 184.63)"/><rect class="cls-39" x="240.48" y="291.04" width="4.65" height="33.73" transform="translate(-128.21 180.99) rotate(-32.86)"/><rect class="cls-40" x="100.84" y="317.07" width="15.04" height="4.65" transform="translate(-183.48 150.33) rotate(-41.17)"/><rect class="cls-41" x="86.33" y="293.56" width="15.04" height="4.65" transform="translate(-171.59 134.96) rotate(-41.17)"/><rect class="cls-42" x="83.52" y="305.95" width="33.73" height="4.65" transform="translate(-178.13 142.32) rotate(-41.17)"/></g></g></svg>